#!OML:ASF F:\VICON\USERDATA\INSTALL\rory3\rory3.ASF
:FULLY-SPECIFIED
:DEGREES
3711
root -0.137486 16.9797 -1.13482 -1.1595 3.96015 -4.29084
lowerback 7.1897 1.61977 -2.67893
upperback 5.46987 2.03056 -1.65545
thorax 1.59143 0.972695 -0.3194
lowerneck -3.46524 -13.3931 -24.8928
upperneck 11.1653 -18.83 18.8257
head 8.26144 -9.27131 8.15044
rclavicle 1.39149e-014 0
rhumerus 12.2992 13.4448 -73.422
rradius 142.759
rwrist -4.74148
rhand 16.861 2.31376
rfingers 7.12502
rthumb 41.6004 -22.4088
lclavicle 1.39149e-014 0
lhumerus 9.5899 -26.695 82.3247
lradius 129.562
lwrist 7.72007
lhand -3.04006 42.0275
lfingers 7.12502
lthumb 22.6755 70.7153
rfemur -7.77667 2.36517 23.4443
rtibia 27.4127
rfoot -19.5658 -7.98281
rtoes -19.6263
lfemur -14.42 -9.6623 -12.3352
ltibia 35.3923
lfoot -19.4731 1.96346
ltoes -19.5915
3712
root -0.12972 16.9932 -1.11034 -1.21846 4.0339 -4.11661
lowerback 6.92168 1.56062 -2.81347
upperback 5.76554 1.96715 -1.67728
thorax 2.04516 0.931699 -0.251273
lowerneck -4.50207 -13.6129 -24.5427
upperneck 10.9684 -18.9038 18.8134
head 8.36008 -9.23103 8.00967
rclavicle -2.06736e-014 1.90833e-014
rhumerus 10.5254 13.4955 -73.7128
rradius 142.823
rwrist -4.74765
rhand 18.8848 3.01216
rfingers 7.12502
rthumb 43.4948 -21.0566
lclavicle -2.06736e-014 1.90833e-014
lhumerus 7.57158 -26.8018 82.5813
lradius 129.323
lwrist 7.63108
lhand -1.69906 42.2243
lfingers 7.12502
lthumb 23.962 70.7489
rfemur -7.32854 2.61687 23.2667
rtibia 26.9455
rfoot -19.4267 -8.28368
rtoes -19.7473
lfemur -14.028 -10.0267 -12.6208
ltibia 35.0341
lfoot -19.3797 2.13622
ltoes -19.2671
3713
root -0.123421 17.0029 -1.08811 -1.25393 4.11591 -3.97849
lowerback 6.71869 1.4427 -3.15413
upperback 6.00439 1.81023 -1.50474
thorax 2.39462 0.83325 0.1328
lowerneck -5.50801 -13.7389 -24.3828
upperneck 10.7569 -18.8133 18.6887
head 8.41618 -9.12751 7.89249
rclavicle -1.70955e-014 -2.54444e-014
rhumerus 8.73081 13.6364 -73.7393
rradius 142.989
rwrist -4.63775
rhand 20.4312 3.64897
rfingers 7.12502
rthumb 44.9365 -19.8756
lclavicle -1.70955e-014 -2.54444e-014
lhumerus 5.38961 -26.2267 83.0709
lradius 129.131
lwrist 7.32523
lhand -0.607742 42.4051
lfingers 7.12502
lthumb 25.0081 70.7882
rfemur -6.93477 2.92312 23.1477
rtibia 26.5099
rfoot -19.2226 -8.6418
rtoes -19.9144
lfemur -13.7197 -10.2889 -12.8424
ltibia 34.7437
lfoot -19.3861 2.42214
ltoes -19.8233
3714
root -0.1184 17.0096 -1.06892 -1.29595 4.19062 -4.0464
lowerback 6.49047 1.28788 -3.34035
upperback 6.24345 1.61049 -1.18481
thorax 2.76265 0.713221 0.583486
lowerneck -6.43693 -13.8071 -24.3415
upperneck 10.5092 -18.6302 18.5115
head 8.43117 -8.99238 7.79907
rclavicle -5.00937e-014 2.38542e-014
rhumerus 7.20811 13.7251 -73.4442
rradius 143.026
rwrist -3.77932
rhand 20.5602 3.82441
rfingers 7.12502
rthumb 45.0566 -19.6528
lclavicle -5.00937e-014 2.38542e-014
lhumerus 3.28658 -25.1641 83.5794
lradius 128.702
lwrist 6.56772
lhand -0.365506 42.0318
lfingers 7.12502
lthumb 25.2402 70.3824
rfemur -6.60067 3.21915 23.2639
rtibia 26.1397
rfoot -19.093 -8.97991
rtoes -19.7042
lfemur -13.493 -10.4957 -12.8093
ltibia 34.523
lfoot -19.4524 2.65909
ltoes -20.6341
3715
root -0.114292 17.0134 -1.05746 -1.35831 4.26607 -4.25135
lowerback 6.32525 1.10274 -3.30841
upperback 6.49789 1.37518 -0.864753
thorax 3.12172 0.58207 0.91096
lowerneck -7.25739 -13.8176 -24.3105
upperneck 10.165 -18.3948 18.4304
head 8.39582 -8.83522 7.76023
rclavicle -1.03368e-014 3.10104e-014
rhumerus 6.10963 13.728 -72.9571
rradius 142.866
rwrist -2.14115
rhand 19.2351 3.47352
rfingers 7.12502
rthumb 43.8219 -20.4755
lclavicle -1.03368e-014 3.10104e-014
lhumerus 1.32435 -23.7179 83.801
lradius 128.385
lwrist 6.13672
lhand -0.633462 41.5413
lfingers 7.12502
lthumb 24.9835 69.9278
rfemur -6.32549 3.49319 23.5323
rtibia 25.847
rfoot -18.9899 -9.27838
rtoes -19.5734
lfemur -13.3489 -10.6325 -12.6117
ltibia 34.3934
lfoot -19.4958 2.81593
ltoes -21.0273
3716
root -0.107774 17.0149 -1.04887 -1.471 4.29895 -4.2789
lowerback 6.22482 0.999035 -3.33104
upperback 6.79495 1.24555 -0.675471
thorax 3.49057 0.503472 1.12789
lowerneck -7.76099 -13.8214 -24.2847
upperneck 9.5574 -18.241 18.6274
head 8.27043 -8.72071 7.82274
rclavicle 2.46493e-014 2.78299e-014
rhumerus 5.39165 12.9982 -72.3478
rradius 142.826
rwrist -1.46366
rhand 18.81 2.76755
rfingers 7.12502
rthumb 43.4249 -21.3265
lclavicle 2.46493e-014 2.78299e-014
lhumerus -0.238609 -21.9514 83.7338
lradius 128.244
lwrist 5.84609
lhand -0.0723599 40.9843
lfingers 7.12502
lthumb 25.5211 69.295
rfemur -6.03498 3.64201 23.5785
rtibia 25.6425
rfoot -18.9377 -9.47974
rtoes -19.8329
lfemur -13.1373 -10.7619 -12.6431
ltibia 34.3176
lfoot -19.5566 2.88313
ltoes -20.729
